<svg width="14" height="14" viewBox="0 0 14 14" fill="none" xmlns="http://www.w3.org/2000/svg">
<path d="M2.57206 9.77051C2.43206 11.4563 3.70373 12.833 5.39539 12.833H8.18956C10.0912 12.833 11.3979 11.2988 11.0829 9.42051C10.7504 7.44884 8.84873 5.83301 6.84789 5.83301C4.67789 5.83301 2.75289 7.60634 2.57206 9.77051Z" stroke="#EB5757" stroke-width="1.2" stroke-linecap="round" stroke-linejoin="round"/>
<path d="M6.10775 4.37467C6.91316 4.37467 7.56608 3.72176 7.56608 2.91634C7.56608 2.11093 6.91316 1.45801 6.10775 1.45801C5.30233 1.45801 4.64941 2.11093 4.64941 2.91634C4.64941 3.72176 5.30233 4.37467 6.10775 4.37467Z" stroke="#EB5757" stroke-width="1.2" stroke-linecap="round" stroke-linejoin="round"/>
<path d="M10.0915 5.07454C10.7358 5.07454 11.2581 4.55221 11.2581 3.90788C11.2581 3.26355 10.7358 2.74121 10.0915 2.74121C9.44714 2.74121 8.9248 3.26355 8.9248 3.90788C8.9248 4.55221 9.44714 5.07454 10.0915 5.07454Z" stroke="#EB5757" stroke-width="1.2" stroke-linecap="round" stroke-linejoin="round"/>
<path d="M12.25 7.4082C12.7332 7.4082 13.125 7.01645 13.125 6.5332C13.125 6.04995 12.7332 5.6582 12.25 5.6582C11.7668 5.6582 11.375 6.04995 11.375 6.5332C11.375 7.01645 11.7668 7.4082 12.25 7.4082Z" stroke="#EB5757" stroke-width="1.2" stroke-linecap="round" stroke-linejoin="round"/>
<path d="M2.31608 6.24154C2.96041 6.24154 3.48275 5.7192 3.48275 5.07487C3.48275 4.43054 2.96041 3.9082 2.31608 3.9082C1.67175 3.9082 1.14941 4.43054 1.14941 5.07487C1.14941 5.7192 1.67175 6.24154 2.31608 6.24154Z" stroke="#EB5757" stroke-width="1.2" stroke-linecap="round" stroke-linejoin="round"/>
</svg>
